<?xml version="1.0" encoding="utf-8" ?>
<svg xmlns="http://www.w3.org/2000/svg" xmlns:xlink="http://www.w3.org/1999/xlink" width="1024" height="1024">
	<defs>
		<linearGradient id="gradient_0" gradientUnits="userSpaceOnUse" x1="340.88373" y1="270.15881" x2="129.12192" y2="161.41135">
			<stop offset="0" stop-color="#EA264F"/>
			<stop offset="1" stop-color="#FE6B74"/>
		</linearGradient>
	</defs>
	<path fill="url(#gradient_0)" transform="scale(2 2)" d="M247.534 142.216C262.076 93.2922 310.583 68.8981 357.967 87.988C364.364 90.5655 383.471 100.583 385.905 106.754C388.494 113.315 382.956 128.823 380.061 135.311C370.597 156.523 353.837 171.305 332.363 179.508C339.138 192.591 343.602 195.957 348.323 212.504C359.576 208.905 377.57 209.297 388.336 214.062C385.021 214.496 381.202 212.187 377.907 211.642C372.463 210.742 366.625 210.554 361.143 210.948L361.702 210.769L361.617 210.997L361.974 211.016C363.727 211.121 368.278 214.631 363.023 215.846C362.567 218.686 361.422 221.834 361.215 224.626C361.103 226.143 361.683 228.58 361.096 229.89L361.403 230.629C361.104 231.094 361.272 230.88 360.902 231.273L361.189 231.221C364.418 230.662 376.384 231.201 379.324 233.188L379.243 233.576C370.368 231.104 360.577 230.451 351.824 233.767C328.256 242.696 331.623 232.312 325.979 213.468C306.029 146.854 207.181 144.711 185.681 214.402C183.731 220.723 183.875 231.295 177.432 234.942C171.348 238.385 165.211 233.936 159.356 232.261C118.162 220.479 81.1081 268.788 103.535 307.246C113.499 324.331 132.41 334.997 152.345 332.827C156.91 332.331 163.396 329.773 167.749 331.037C177.885 333.98 179.353 349.829 160.719 353.109C106.459 362.658 60.0141 307.667 80.6226 255.718C88.7698 235.181 108.49 217.157 130.276 212.022C139.711 209.798 154.7 208.891 163.837 212.504C174.219 175.774 208.008 142.663 247.534 142.216ZM268.702 142.216C285.867 143.87 301.467 151.552 315.262 161.533L316.996 162.508C343.483 157.223 358.644 140.484 364.779 115.359C350.682 105.385 338.121 100.532 320.177 101.739C296.368 104.842 276.876 119.648 268.702 142.216Z"/>
	<path fill="#E91E48" transform="scale(2 2)" d="M253.61 241.325C287.357 239.636 306.253 272.695 291.233 302.718C296.98 309.189 306.04 326.615 309.688 334.258C311.557 338.174 313.006 342.296 315.262 346.015C358.255 349.844 363.679 409.363 325.57 422.626C304.278 430.036 281.746 419.103 274.432 397.86C267.541 377.843 279.4 354.549 299.327 347.805C294.007 335.937 288.777 324.34 281.433 313.546C273.985 318.069 266.92 321.727 257.98 321.75C244.776 322.25 241.447 318.268 231.225 313.546C224.329 318.919 216.081 339.563 212.529 347.805C239.324 355.594 247.475 389.051 231.205 410.214C218.516 426.719 193.032 429.553 176.756 416.73C147.591 393.754 161.943 349.677 197.585 346.015C204.14 328.128 210.325 316.644 221.602 301.818C206.521 275.554 224.794 244.733 253.61 241.325Z"/>
	<path fill="#E91E48" transform="scale(2 2)" d="M379.243 233.576L379.324 233.188C376.384 231.201 364.418 230.662 361.189 231.221L360.902 231.273C361.272 230.88 361.104 231.094 361.403 230.629L361.096 229.89C361.683 228.58 361.103 226.143 361.215 224.626C361.422 221.834 362.567 218.686 363.023 215.846C368.278 214.631 363.727 211.121 361.974 211.016L361.617 210.997L361.702 210.769L361.143 210.948C366.625 210.554 372.463 210.742 377.907 211.642C381.202 212.187 385.021 214.496 388.336 214.062C402.78 217.519 418.587 233.034 426.001 245.055C459.754 299.779 407.232 367.569 348.334 353.422C341.862 351.867 337.41 345.016 339.238 338.489C342.538 326.703 355.82 332.562 364.269 332.722C419.282 333.76 435.984 253.861 379.243 233.576Z"/>
</svg>
